<?xml version="1.0" encoding="UTF-8" standalone="no"?>
<!DOCTYPE svg PUBLIC "-//W3C//DTD SVG 1.1//EN"
 "http://www.w3.org/Graphics/SVG/1.1/DTD/svg11.dtd">
<!-- Generated by graphviz version 2.43.0 (0)
 -->
<!-- Title: %3 Pages: 1 -->
<svg width="595pt" height="199pt"
 viewBox="0.00 0.00 594.50 199.00" xmlns="http://www.w3.org/2000/svg" xmlns:xlink="http://www.w3.org/1999/xlink">
<g id="graph0" class="graph" transform="scale(1 1) rotate(0) translate(4 195)">
<title>%3</title>
<polygon fill="white" stroke="transparent" points="-4,4 -4,-195 590.5,-195 590.5,4 -4,4"/>
<!-- fused&#45;and&#45;compiled -->
<g id="node1" class="node">
<title>fused&#45;and&#45;compiled</title>
<polygon fill="green" stroke="green" points="155,-191 0,-191 0,-155 155,-155 155,-191"/>
<text text-anchor="middle" x="77.5" y="-169.3" font-family="Times,serif" font-size="14.00">fused&#45;and&#45;compiled</text>
</g>
<!-- not compiled -->
<g id="node2" class="node">
<title>not compiled</title>
<polygon fill="blue" stroke="blue" points="282,-191 173,-191 173,-155 282,-155 282,-191"/>
<text text-anchor="middle" x="227.5" y="-169.3" font-family="Times,serif" font-size="14.00">not compiled</text>
</g>
<!-- Vhinb -->
<g id="node3" class="node">
<title>Vhinb</title>
<text text-anchor="middle" x="321.5" y="-169.3" font-family="Times,serif" font-size="14.00">Vhinb</text>
</g>
<!-- K286\nMul\nAggSum\nMul -->
<g id="node6" class="node">
<title>K286\nMul\nAggSum\nMul</title>
<polygon fill="green" stroke="green" points="433,-119 356,-119 356,-51 433,-51 433,-119"/>
<text text-anchor="middle" x="394.5" y="-103.8" font-family="Times,serif" font-size="14.00">K286</text>
<text text-anchor="middle" x="394.5" y="-88.8" font-family="Times,serif" font-size="14.00">Mul</text>
<text text-anchor="middle" x="394.5" y="-73.8" font-family="Times,serif" font-size="14.00">AggSum</text>
<text text-anchor="middle" x="394.5" y="-58.8" font-family="Times,serif" font-size="14.00">Mul</text>
</g>
<!-- Vhinb&#45;&gt;K286\nMul\nAggSum\nMul -->
<g id="edge1" class="edge">
<title>Vhinb&#45;&gt;K286\nMul\nAggSum\nMul</title>
<path fill="none" stroke="black" d="M327.23,-165.25C334.38,-156.82 347.22,-141.7 359.77,-126.91"/>
<polygon fill="black" stroke="black" points="362.48,-129.13 366.28,-119.24 357.14,-124.6 362.48,-129.13"/>
</g>
<!-- Vnormcen -->
<g id="node4" class="node">
<title>Vnormcen</title>
<text text-anchor="middle" x="397.5" y="-169.3" font-family="Times,serif" font-size="14.00">Vnormcen</text>
</g>
<!-- Vnormcen&#45;&gt;K286\nMul\nAggSum\nMul -->
<g id="edge2" class="edge">
<title>Vnormcen&#45;&gt;K286\nMul\nAggSum\nMul</title>
<path fill="none" stroke="black" d="M397.26,-165.25C396.99,-157.29 396.5,-143.34 396.01,-129.35"/>
<polygon fill="black" stroke="black" points="399.51,-129.11 395.66,-119.24 392.51,-129.36 399.51,-129.11"/>
</g>
<!-- K287\nMul\nAggSum\nMul -->
<g id="node9" class="node">
<title>K287\nMul\nAggSum\nMul</title>
<polygon fill="green" stroke="green" points="528,-119 451,-119 451,-51 528,-51 528,-119"/>
<text text-anchor="middle" x="489.5" y="-103.8" font-family="Times,serif" font-size="14.00">K287</text>
<text text-anchor="middle" x="489.5" y="-88.8" font-family="Times,serif" font-size="14.00">Mul</text>
<text text-anchor="middle" x="489.5" y="-73.8" font-family="Times,serif" font-size="14.00">AggSum</text>
<text text-anchor="middle" x="489.5" y="-58.8" font-family="Times,serif" font-size="14.00">Mul</text>
</g>
<!-- Vnormcen&#45;&gt;K287\nMul\nAggSum\nMul -->
<g id="edge3" class="edge">
<title>Vnormcen&#45;&gt;K287\nMul\nAggSum\nMul</title>
<path fill="none" stroke="black" d="M404.72,-165.25C413.9,-156.67 430.51,-141.14 446.61,-126.1"/>
<polygon fill="black" stroke="black" points="449.02,-128.63 453.94,-119.24 444.24,-123.51 449.02,-128.63"/>
</g>
<!-- Vnorminb -->
<g id="node5" class="node">
<title>Vnorminb</title>
<text text-anchor="middle" x="487.5" y="-169.3" font-family="Times,serif" font-size="14.00">Vnorminb</text>
</g>
<!-- Vnorminb&#45;&gt;K286\nMul\nAggSum\nMul -->
<g id="edge4" class="edge">
<title>Vnorminb&#45;&gt;K286\nMul\nAggSum\nMul</title>
<path fill="none" stroke="black" d="M480.2,-165.25C470.92,-156.67 454.13,-141.14 437.86,-126.1"/>
<polygon fill="black" stroke="black" points="440.17,-123.46 430.45,-119.24 435.41,-128.6 440.17,-123.46"/>
</g>
<!-- Vnorminb&#45;&gt;K287\nMul\nAggSum\nMul -->
<g id="edge5" class="edge">
<title>Vnorminb&#45;&gt;K287\nMul\nAggSum\nMul</title>
<path fill="none" stroke="black" d="M487.66,-165.25C487.84,-157.29 488.17,-143.34 488.49,-129.35"/>
<polygon fill="black" stroke="black" points="491.99,-129.32 488.73,-119.24 485,-129.16 491.99,-129.32"/>
</g>
<!-- V1146 -->
<g id="node7" class="node">
<title>V1146</title>
<text text-anchor="middle" x="394.5" y="-3.8" font-family="Times,serif" font-size="14.00">V1146</text>
</g>
<!-- K286\nMul\nAggSum\nMul&#45;&gt;V1146 -->
<g id="edge6" class="edge">
<title>K286\nMul\nAggSum\nMul&#45;&gt;V1146</title>
<path fill="none" stroke="black" d="M394.5,-50.66C394.5,-41.85 394.5,-32.71 394.5,-25.2"/>
<polygon fill="black" stroke="black" points="398,-25.03 394.5,-15.03 391,-25.03 398,-25.03"/>
</g>
<!-- V1147 -->
<g id="node8" class="node">
<title>V1147</title>
<text text-anchor="middle" x="563.5" y="-169.3" font-family="Times,serif" font-size="14.00">V1147</text>
</g>
<!-- V1147&#45;&gt;K287\nMul\nAggSum\nMul -->
<g id="edge7" class="edge">
<title>V1147&#45;&gt;K287\nMul\nAggSum\nMul</title>
<path fill="none" stroke="black" d="M557.69,-165.25C550.44,-156.82 537.43,-141.7 524.7,-126.91"/>
<polygon fill="black" stroke="black" points="527.28,-124.54 518.1,-119.24 521.97,-129.11 527.28,-124.54"/>
</g>
<!-- V1151 -->
<g id="node10" class="node">
<title>V1151</title>
<text text-anchor="middle" x="489.5" y="-3.8" font-family="Times,serif" font-size="14.00">V1151</text>
</g>
<!-- K287\nMul\nAggSum\nMul&#45;&gt;V1151 -->
<g id="edge8" class="edge">
<title>K287\nMul\nAggSum\nMul&#45;&gt;V1151</title>
<path fill="none" stroke="black" d="M489.5,-50.66C489.5,-41.85 489.5,-32.71 489.5,-25.2"/>
<polygon fill="black" stroke="black" points="493,-25.03 489.5,-15.03 486,-25.03 493,-25.03"/>
</g>
</g>
</svg>
