<?xml version="1.0" encoding="UTF-8" standalone="no"?>
<!DOCTYPE svg PUBLIC "-//W3C//DTD SVG 1.1//EN"
 "http://www.w3.org/Graphics/SVG/1.1/DTD/svg11.dtd">
<!-- Generated by graphviz version 2.43.0 (0)
 -->
<!-- Title: %3 Pages: 1 -->
<svg width="655pt" height="214pt"
 viewBox="0.00 0.00 654.50 214.00" xmlns="http://www.w3.org/2000/svg" xmlns:xlink="http://www.w3.org/1999/xlink">
<g id="graph0" class="graph" transform="scale(1 1) rotate(0) translate(4 210)">
<title>%3</title>
<polygon fill="white" stroke="transparent" points="-4,4 -4,-210 650.5,-210 650.5,4 -4,4"/>
<!-- fused&#45;and&#45;compiled -->
<g id="node1" class="node">
<title>fused&#45;and&#45;compiled</title>
<polygon fill="green" stroke="green" points="155,-206 0,-206 0,-170 155,-170 155,-206"/>
<text text-anchor="middle" x="77.5" y="-184.3" font-family="Times,serif" font-size="14.00">fused&#45;and&#45;compiled</text>
</g>
<!-- not compiled -->
<g id="node2" class="node">
<title>not compiled</title>
<polygon fill="blue" stroke="blue" points="282,-206 173,-206 173,-170 282,-170 282,-206"/>
<text text-anchor="middle" x="227.5" y="-184.3" font-family="Times,serif" font-size="14.00">not compiled</text>
</g>
<!-- Vhinb -->
<g id="node3" class="node">
<title>Vhinb</title>
<text text-anchor="middle" x="321.5" y="-184.3" font-family="Times,serif" font-size="14.00">Vhinb</text>
</g>
<!-- K2\nMul\nMul\nAggSum\nMul -->
<g id="node7" class="node">
<title>K2\nMul\nMul\nAggSum\nMul</title>
<polygon fill="green" stroke="green" points="475,-134 398,-134 398,-51 475,-51 475,-134"/>
<text text-anchor="middle" x="436.5" y="-118.8" font-family="Times,serif" font-size="14.00">K2</text>
<text text-anchor="middle" x="436.5" y="-103.8" font-family="Times,serif" font-size="14.00">Mul</text>
<text text-anchor="middle" x="436.5" y="-88.8" font-family="Times,serif" font-size="14.00">Mul</text>
<text text-anchor="middle" x="436.5" y="-73.8" font-family="Times,serif" font-size="14.00">AggSum</text>
<text text-anchor="middle" x="436.5" y="-58.8" font-family="Times,serif" font-size="14.00">Mul</text>
</g>
<!-- Vhinb&#45;&gt;K2\nMul\nMul\nAggSum\nMul -->
<g id="edge1" class="edge">
<title>Vhinb&#45;&gt;K2\nMul\nMul\nAggSum\nMul</title>
<path fill="none" stroke="black" d="M329.77,-180.28C342.39,-170.01 367.39,-149.69 390.02,-131.29"/>
<polygon fill="black" stroke="black" points="392.35,-133.91 397.9,-124.88 387.93,-128.47 392.35,-133.91"/>
</g>
<!-- Vnormcen -->
<g id="node4" class="node">
<title>Vnormcen</title>
<text text-anchor="middle" x="397.5" y="-184.3" font-family="Times,serif" font-size="14.00">Vnormcen</text>
</g>
<!-- Vnormcen&#45;&gt;K2\nMul\nMul\nAggSum\nMul -->
<g id="edge2" class="edge">
<title>Vnormcen&#45;&gt;K2\nMul\nMul\nAggSum\nMul</title>
<path fill="none" stroke="black" d="M400.3,-180.28C403.63,-172.31 409.48,-158.27 415.53,-143.78"/>
<polygon fill="black" stroke="black" points="418.88,-144.83 419.5,-134.26 412.42,-142.14 418.88,-144.83"/>
</g>
<!-- K3\nMul\nMul\nAggSum\nMul -->
<g id="node10" class="node">
<title>K3\nMul\nMul\nAggSum\nMul</title>
<polygon fill="green" stroke="green" points="589,-134 512,-134 512,-51 589,-51 589,-134"/>
<text text-anchor="middle" x="550.5" y="-118.8" font-family="Times,serif" font-size="14.00">K3</text>
<text text-anchor="middle" x="550.5" y="-103.8" font-family="Times,serif" font-size="14.00">Mul</text>
<text text-anchor="middle" x="550.5" y="-88.8" font-family="Times,serif" font-size="14.00">Mul</text>
<text text-anchor="middle" x="550.5" y="-73.8" font-family="Times,serif" font-size="14.00">AggSum</text>
<text text-anchor="middle" x="550.5" y="-58.8" font-family="Times,serif" font-size="14.00">Mul</text>
</g>
<!-- Vnormcen&#45;&gt;K3\nMul\nMul\nAggSum\nMul -->
<g id="edge3" class="edge">
<title>Vnormcen&#45;&gt;K3\nMul\nMul\nAggSum\nMul</title>
<path fill="none" stroke="black" d="M408.5,-180.28C428.06,-168.32 469.96,-142.72 503.2,-122.41"/>
<polygon fill="black" stroke="black" points="505.17,-125.3 511.88,-117.1 501.52,-119.33 505.17,-125.3"/>
</g>
<!-- Vnorminb -->
<g id="node5" class="node">
<title>Vnorminb</title>
<text text-anchor="middle" x="487.5" y="-184.3" font-family="Times,serif" font-size="14.00">Vnorminb</text>
</g>
<!-- Vnorminb&#45;&gt;K2\nMul\nMul\nAggSum\nMul -->
<g id="edge4" class="edge">
<title>Vnorminb&#45;&gt;K2\nMul\nMul\nAggSum\nMul</title>
<path fill="none" stroke="black" d="M483.83,-180.28C479.44,-172.23 471.68,-158 463.7,-143.37"/>
<polygon fill="black" stroke="black" points="466.59,-141.36 458.73,-134.26 460.45,-144.71 466.59,-141.36"/>
</g>
<!-- Vnorminb&#45;&gt;K3\nMul\nMul\nAggSum\nMul -->
<g id="edge5" class="edge">
<title>Vnorminb&#45;&gt;K3\nMul\nMul\nAggSum\nMul</title>
<path fill="none" stroke="black" d="M492.03,-180.28C497.5,-172.16 507.22,-157.74 517.18,-142.96"/>
<polygon fill="black" stroke="black" points="520.35,-144.5 523.04,-134.26 514.55,-140.59 520.35,-144.5"/>
</g>
<!-- Vweight -->
<g id="node6" class="node">
<title>Vweight</title>
<text text-anchor="middle" x="570.5" y="-184.3" font-family="Times,serif" font-size="14.00">Vweight</text>
</g>
<!-- Vweight&#45;&gt;K2\nMul\nMul\nAggSum\nMul -->
<g id="edge6" class="edge">
<title>Vweight&#45;&gt;K2\nMul\nMul\nAggSum\nMul</title>
<path fill="none" stroke="black" d="M560.86,-180.28C544.82,-169.08 511.62,-145.92 483.56,-126.34"/>
<polygon fill="black" stroke="black" points="485.25,-123.25 475.04,-120.39 481.24,-128.99 485.25,-123.25"/>
</g>
<!-- Vweight&#45;&gt;K3\nMul\nMul\nAggSum\nMul -->
<g id="edge7" class="edge">
<title>Vweight&#45;&gt;K3\nMul\nMul\nAggSum\nMul</title>
<path fill="none" stroke="black" d="M569.06,-180.28C567.37,-172.38 564.41,-158.54 561.34,-144.2"/>
<polygon fill="black" stroke="black" points="564.73,-143.3 559.22,-134.26 557.89,-144.77 564.73,-143.3"/>
</g>
<!-- V13 -->
<g id="node8" class="node">
<title>V13</title>
<text text-anchor="middle" x="436.5" y="-3.8" font-family="Times,serif" font-size="14.00">V13</text>
</g>
<!-- K2\nMul\nMul\nAggSum\nMul&#45;&gt;V13 -->
<g id="edge8" class="edge">
<title>K2\nMul\nMul\nAggSum\nMul&#45;&gt;V13</title>
<path fill="none" stroke="black" d="M436.5,-50.97C436.5,-41.9 436.5,-32.76 436.5,-25.3"/>
<polygon fill="black" stroke="black" points="440,-25.2 436.5,-15.2 433,-25.2 440,-25.2"/>
</g>
<!-- V14 -->
<g id="node9" class="node">
<title>V14</title>
<text text-anchor="middle" x="632.5" y="-184.3" font-family="Times,serif" font-size="14.00">V14</text>
</g>
<!-- V14&#45;&gt;K3\nMul\nMul\nAggSum\nMul -->
<g id="edge9" class="edge">
<title>V14&#45;&gt;K3\nMul\nMul\nAggSum\nMul</title>
<path fill="none" stroke="black" d="M626.6,-180.28C619.35,-172 606.36,-157.19 593.15,-142.13"/>
<polygon fill="black" stroke="black" points="595.47,-139.47 586.24,-134.26 590.2,-144.08 595.47,-139.47"/>
</g>
<!-- V19 -->
<g id="node11" class="node">
<title>V19</title>
<text text-anchor="middle" x="550.5" y="-3.8" font-family="Times,serif" font-size="14.00">V19</text>
</g>
<!-- K3\nMul\nMul\nAggSum\nMul&#45;&gt;V19 -->
<g id="edge10" class="edge">
<title>K3\nMul\nMul\nAggSum\nMul&#45;&gt;V19</title>
<path fill="none" stroke="black" d="M550.5,-50.97C550.5,-41.9 550.5,-32.76 550.5,-25.3"/>
<polygon fill="black" stroke="black" points="554,-25.2 550.5,-15.2 547,-25.2 554,-25.2"/>
</g>
</g>
</svg>
