<?xml version="1.0" encoding="UTF-8" standalone="no"?>
<!DOCTYPE svg PUBLIC "-//W3C//DTD SVG 1.1//EN"
 "http://www.w3.org/Graphics/SVG/1.1/DTD/svg11.dtd">
<!-- Generated by graphviz version 2.43.0 (0)
 -->
<!-- Title: %3 Pages: 1 -->
<svg width="614pt" height="719pt"
 viewBox="0.00 0.00 614.00 719.00" xmlns="http://www.w3.org/2000/svg" xmlns:xlink="http://www.w3.org/1999/xlink">
<g id="graph0" class="graph" transform="scale(1 1) rotate(0) translate(4 715)">
<title>%3</title>
<polygon fill="white" stroke="transparent" points="-4,4 -4,-715 610,-715 610,4 -4,4"/>
<!-- fused&#45;and&#45;compiled -->
<g id="node1" class="node">
<title>fused&#45;and&#45;compiled</title>
<polygon fill="green" stroke="green" points="155,-711 0,-711 0,-675 155,-675 155,-711"/>
<text text-anchor="middle" x="77.5" y="-689.3" font-family="Times,serif" font-size="14.00">fused&#45;and&#45;compiled</text>
</g>
<!-- not compiled -->
<g id="node2" class="node">
<title>not compiled</title>
<polygon fill="blue" stroke="blue" points="282,-711 173,-711 173,-675 282,-675 282,-711"/>
<text text-anchor="middle" x="227.5" y="-689.3" font-family="Times,serif" font-size="14.00">not compiled</text>
</g>
<!-- Velinb -->
<g id="node3" class="node">
<title>Velinb</title>
<text text-anchor="middle" x="322.5" y="-689.3" font-family="Times,serif" font-size="14.00">Velinb</text>
</g>
<!-- K0\nAdd\nLeakyReLU\nexp\nAggSum -->
<g id="node5" class="node">
<title>K0\nAdd\nLeakyReLU\nexp\nAggSum</title>
<polygon fill="green" stroke="green" points="449.5,-639 351.5,-639 351.5,-556 449.5,-556 449.5,-639"/>
<text text-anchor="middle" x="400.5" y="-623.8" font-family="Times,serif" font-size="14.00">K0</text>
<text text-anchor="middle" x="400.5" y="-608.8" font-family="Times,serif" font-size="14.00">Add</text>
<text text-anchor="middle" x="400.5" y="-593.8" font-family="Times,serif" font-size="14.00">LeakyReLU</text>
<text text-anchor="middle" x="400.5" y="-578.8" font-family="Times,serif" font-size="14.00">exp</text>
<text text-anchor="middle" x="400.5" y="-563.8" font-family="Times,serif" font-size="14.00">AggSum</text>
</g>
<!-- Velinb&#45;&gt;K0\nAdd\nLeakyReLU\nexp\nAggSum -->
<g id="edge1" class="edge">
<title>Velinb&#45;&gt;K0\nAdd\nLeakyReLU\nexp\nAggSum</title>
<path fill="none" stroke="black" d="M328.11,-685.28C335.01,-677 347.36,-662.19 359.94,-647.13"/>
<polygon fill="black" stroke="black" points="362.78,-649.18 366.5,-639.26 357.41,-644.69 362.78,-649.18"/>
</g>
<!-- K2\nTrueDiv\nMul\nAdd\nMul\nTrueDiv\nMul\nTrueDiv\nMul\nMul\nadd\nMul\nBackwardLeakyRelu\nMul\nAggSum\nAggSum\nAggSum -->
<g id="node12" class="node">
<title>K2\nTrueDiv\nMul\nAdd\nMul\nTrueDiv\nMul\nTrueDiv\nMul\nMul\nadd\nMul\nBackwardLeakyRelu\nMul\nAggSum\nAggSum\nAggSum</title>
<polygon fill="green" stroke="green" points="534,-314 373,-314 373,-51 534,-51 534,-314"/>
<text text-anchor="middle" x="453.5" y="-298.8" font-family="Times,serif" font-size="14.00">K2</text>
<text text-anchor="middle" x="453.5" y="-283.8" font-family="Times,serif" font-size="14.00">TrueDiv</text>
<text text-anchor="middle" x="453.5" y="-268.8" font-family="Times,serif" font-size="14.00">Mul</text>
<text text-anchor="middle" x="453.5" y="-253.8" font-family="Times,serif" font-size="14.00">Add</text>
<text text-anchor="middle" x="453.5" y="-238.8" font-family="Times,serif" font-size="14.00">Mul</text>
<text text-anchor="middle" x="453.5" y="-223.8" font-family="Times,serif" font-size="14.00">TrueDiv</text>
<text text-anchor="middle" x="453.5" y="-208.8" font-family="Times,serif" font-size="14.00">Mul</text>
<text text-anchor="middle" x="453.5" y="-193.8" font-family="Times,serif" font-size="14.00">TrueDiv</text>
<text text-anchor="middle" x="453.5" y="-178.8" font-family="Times,serif" font-size="14.00">Mul</text>
<text text-anchor="middle" x="453.5" y="-163.8" font-family="Times,serif" font-size="14.00">Mul</text>
<text text-anchor="middle" x="453.5" y="-148.8" font-family="Times,serif" font-size="14.00">add</text>
<text text-anchor="middle" x="453.5" y="-133.8" font-family="Times,serif" font-size="14.00">Mul</text>
<text text-anchor="middle" x="453.5" y="-118.8" font-family="Times,serif" font-size="14.00">BackwardLeakyRelu</text>
<text text-anchor="middle" x="453.5" y="-103.8" font-family="Times,serif" font-size="14.00">Mul</text>
<text text-anchor="middle" x="453.5" y="-88.8" font-family="Times,serif" font-size="14.00">AggSum</text>
<text text-anchor="middle" x="453.5" y="-73.8" font-family="Times,serif" font-size="14.00">AggSum</text>
<text text-anchor="middle" x="453.5" y="-58.8" font-family="Times,serif" font-size="14.00">AggSum</text>
</g>
<!-- Velinb&#45;&gt;K2\nTrueDiv\nMul\nAdd\nMul\nTrueDiv\nMul\nTrueDiv\nMul\nMul\nadd\nMul\nBackwardLeakyRelu\nMul\nAggSum\nAggSum\nAggSum -->
<g id="edge2" class="edge">
<title>Velinb&#45;&gt;K2\nTrueDiv\nMul\nAdd\nMul\nTrueDiv\nMul\nTrueDiv\nMul\nMul\nadd\nMul\nBackwardLeakyRelu\nMul\nAggSum\nAggSum\nAggSum</title>
<path fill="none" stroke="black" d="M321.71,-685.2C319.04,-661.54 310.5,-580.59 310.5,-513.5 310.5,-513.5 310.5,-513.5 310.5,-434 310.5,-378.96 336.86,-325 366.95,-281.35"/>
<polygon fill="black" stroke="black" points="369.91,-283.23 372.81,-273.04 364.18,-279.19 369.91,-283.23"/>
</g>
<!-- Vercen -->
<g id="node4" class="node">
<title>Vercen</title>
<text text-anchor="middle" x="479.5" y="-689.3" font-family="Times,serif" font-size="14.00">Vercen</text>
</g>
<!-- Vercen&#45;&gt;K0\nAdd\nLeakyReLU\nexp\nAggSum -->
<g id="edge3" class="edge">
<title>Vercen&#45;&gt;K0\nAdd\nLeakyReLU\nexp\nAggSum</title>
<path fill="none" stroke="black" d="M473.82,-685.28C466.83,-677 454.32,-662.19 441.59,-647.13"/>
<polygon fill="black" stroke="black" points="444.06,-644.64 434.94,-639.26 438.72,-649.15 444.06,-644.64"/>
</g>
<!-- Vercen&#45;&gt;K2\nTrueDiv\nMul\nAdd\nMul\nTrueDiv\nMul\nTrueDiv\nMul\nMul\nadd\nMul\nBackwardLeakyRelu\nMul\nAggSum\nAggSum\nAggSum -->
<g id="edge4" class="edge">
<title>Vercen&#45;&gt;K2\nTrueDiv\nMul\nAdd\nMul\nTrueDiv\nMul\nTrueDiv\nMul\nMul\nadd\nMul\nBackwardLeakyRelu\nMul\nAggSum\nAggSum\nAggSum</title>
<path fill="none" stroke="black" d="M484.93,-685.34C502.78,-662.74 558.5,-586.36 558.5,-513.5 558.5,-513.5 558.5,-513.5 558.5,-434 558.5,-396.66 548.46,-358.46 534.58,-323.5"/>
<polygon fill="black" stroke="black" points="537.81,-322.14 530.78,-314.21 531.33,-324.79 537.81,-322.14"/>
</g>
<!-- V2 -->
<g id="node6" class="node">
<title>V2</title>
<text text-anchor="middle" x="366.5" y="-508.8" font-family="Times,serif" font-size="14.00">V2</text>
</g>
<!-- K0\nAdd\nLeakyReLU\nexp\nAggSum&#45;&gt;V2 -->
<g id="edge5" class="edge">
<title>K0\nAdd\nLeakyReLU\nexp\nAggSum&#45;&gt;V2</title>
<path fill="none" stroke="black" d="M383.9,-555.97C380.05,-546.57 376.17,-537.11 373.06,-529.51"/>
<polygon fill="black" stroke="black" points="376.28,-528.13 369.25,-520.2 369.8,-530.78 376.28,-528.13"/>
</g>
<!-- V3 -->
<g id="node7" class="node">
<title>V3</title>
<text text-anchor="middle" x="403.5" y="-508.8" font-family="Times,serif" font-size="14.00">V3</text>
</g>
<!-- K0\nAdd\nLeakyReLU\nexp\nAggSum&#45;&gt;V3 -->
<g id="edge6" class="edge">
<title>K0\nAdd\nLeakyReLU\nexp\nAggSum&#45;&gt;V3</title>
<path fill="none" stroke="black" d="M401.96,-555.97C402.29,-546.9 402.62,-537.76 402.89,-530.3"/>
<polygon fill="black" stroke="black" points="406.39,-530.32 403.26,-520.2 399.4,-530.07 406.39,-530.32"/>
</g>
<!-- K1\nTrueDiv\nMul\nAggSum -->
<g id="node9" class="node">
<title>K1\nTrueDiv\nMul\nAggSum</title>
<polygon fill="green" stroke="green" points="492,-469 415,-469 415,-401 492,-401 492,-469"/>
<text text-anchor="middle" x="453.5" y="-453.8" font-family="Times,serif" font-size="14.00">K1</text>
<text text-anchor="middle" x="453.5" y="-438.8" font-family="Times,serif" font-size="14.00">TrueDiv</text>
<text text-anchor="middle" x="453.5" y="-423.8" font-family="Times,serif" font-size="14.00">Mul</text>
<text text-anchor="middle" x="453.5" y="-408.8" font-family="Times,serif" font-size="14.00">AggSum</text>
</g>
<!-- V2&#45;&gt;K1\nTrueDiv\nMul\nAggSum -->
<g id="edge7" class="edge">
<title>V2&#45;&gt;K1\nTrueDiv\nMul\nAggSum</title>
<path fill="none" stroke="black" d="M374.22,-504.8C382.01,-498.04 394.7,-487.03 407.67,-475.77"/>
<polygon fill="black" stroke="black" points="410.05,-478.34 415.31,-469.14 405.46,-473.05 410.05,-478.34"/>
</g>
<!-- V2&#45;&gt;K2\nTrueDiv\nMul\nAdd\nMul\nTrueDiv\nMul\nTrueDiv\nMul\nMul\nadd\nMul\nBackwardLeakyRelu\nMul\nAggSum\nAggSum\nAggSum -->
<g id="edge8" class="edge">
<title>V2&#45;&gt;K2\nTrueDiv\nMul\nAdd\nMul\nTrueDiv\nMul\nTrueDiv\nMul\nMul\nadd\nMul\nBackwardLeakyRelu\nMul\nAggSum\nAggSum\nAggSum</title>
<path fill="none" stroke="black" d="M368.17,-504.72C373.65,-482.49 391.64,-409.84 407.5,-350 409.73,-341.58 412.05,-332.92 414.41,-324.19"/>
<polygon fill="black" stroke="black" points="417.85,-324.88 417.08,-314.31 411.09,-323.05 417.85,-324.88"/>
</g>
<!-- V3&#45;&gt;K1\nTrueDiv\nMul\nAggSum -->
<g id="edge9" class="edge">
<title>V3&#45;&gt;K1\nTrueDiv\nMul\nAggSum</title>
<path fill="none" stroke="black" d="M407.94,-504.8C412.16,-498.42 418.9,-488.25 425.91,-477.66"/>
<polygon fill="black" stroke="black" points="428.95,-479.41 431.55,-469.14 423.11,-475.55 428.95,-479.41"/>
</g>
<!-- V3&#45;&gt;K2\nTrueDiv\nMul\nAdd\nMul\nTrueDiv\nMul\nTrueDiv\nMul\nMul\nadd\nMul\nBackwardLeakyRelu\nMul\nAggSum\nAggSum\nAggSum -->
<g id="edge10" class="edge">
<title>V3&#45;&gt;K2\nTrueDiv\nMul\nAdd\nMul\nTrueDiv\nMul\nTrueDiv\nMul\nMul\nadd\nMul\nBackwardLeakyRelu\nMul\nAggSum\nAggSum\nAggSum</title>
<path fill="none" stroke="black" d="M403.17,-504.99C402.39,-487.88 400.86,-440.25 405.5,-401 408.46,-376 413.01,-349.64 418.16,-324.24"/>
<polygon fill="black" stroke="black" points="421.65,-324.69 420.25,-314.19 414.79,-323.27 421.65,-324.69"/>
</g>
<!-- Vfeat_srcinb -->
<g id="node8" class="node">
<title>Vfeat_srcinb</title>
<text text-anchor="middle" x="479.5" y="-508.8" font-family="Times,serif" font-size="14.00">Vfeat_srcinb</text>
</g>
<!-- Vfeat_srcinb&#45;&gt;K1\nTrueDiv\nMul\nAggSum -->
<g id="edge11" class="edge">
<title>Vfeat_srcinb&#45;&gt;K1\nTrueDiv\nMul\nAggSum</title>
<path fill="none" stroke="black" d="M477.19,-504.8C475.06,-498.61 471.7,-488.85 468.17,-478.6"/>
<polygon fill="black" stroke="black" points="471.48,-477.46 464.91,-469.14 464.86,-479.74 471.48,-477.46"/>
</g>
<!-- Vfeat_srcinb&#45;&gt;K2\nTrueDiv\nMul\nAdd\nMul\nTrueDiv\nMul\nTrueDiv\nMul\nMul\nadd\nMul\nBackwardLeakyRelu\nMul\nAggSum\nAggSum\nAggSum -->
<g id="edge12" class="edge">
<title>Vfeat_srcinb&#45;&gt;K2\nTrueDiv\nMul\nAdd\nMul\nTrueDiv\nMul\nTrueDiv\nMul\nMul\nadd\nMul\nBackwardLeakyRelu\nMul\nAggSum\nAggSum\nAggSum</title>
<path fill="none" stroke="black" d="M483.94,-504.95C489.1,-496.9 497.32,-482.62 500.5,-469 507.37,-439.57 503.71,-431.05 500.5,-401 497.83,-375.99 493.48,-349.63 488.47,-324.23"/>
<polygon fill="black" stroke="black" points="491.85,-323.28 486.44,-314.17 484.99,-324.67 491.85,-323.28"/>
</g>
<!-- V6 -->
<g id="node10" class="node">
<title>V6</title>
<text text-anchor="middle" x="453.5" y="-353.8" font-family="Times,serif" font-size="14.00">V6</text>
</g>
<!-- K1\nTrueDiv\nMul\nAggSum&#45;&gt;V6 -->
<g id="edge13" class="edge">
<title>K1\nTrueDiv\nMul\nAggSum&#45;&gt;V6</title>
<path fill="none" stroke="black" d="M453.5,-400.66C453.5,-391.85 453.5,-382.71 453.5,-375.2"/>
<polygon fill="black" stroke="black" points="457,-375.03 453.5,-365.03 450,-375.03 457,-375.03"/>
</g>
<!-- V6&#45;&gt;K2\nTrueDiv\nMul\nAdd\nMul\nTrueDiv\nMul\nTrueDiv\nMul\nMul\nadd\nMul\nBackwardLeakyRelu\nMul\nAggSum\nAggSum\nAggSum -->
<g id="edge14" class="edge">
<title>V6&#45;&gt;K2\nTrueDiv\nMul\nAdd\nMul\nTrueDiv\nMul\nTrueDiv\nMul\nMul\nadd\nMul\nBackwardLeakyRelu\nMul\nAggSum\nAggSum\nAggSum</title>
<path fill="none" stroke="black" d="M453.5,-349.93C453.5,-344.25 453.5,-335.23 453.5,-324.26"/>
<polygon fill="black" stroke="black" points="457,-324.16 453.5,-314.16 450,-324.16 457,-324.16"/>
</g>
<!-- V7 -->
<g id="node11" class="node">
<title>V7</title>
<text text-anchor="middle" x="596.5" y="-353.8" font-family="Times,serif" font-size="14.00">V7</text>
</g>
<!-- V7&#45;&gt;K2\nTrueDiv\nMul\nAdd\nMul\nTrueDiv\nMul\nTrueDiv\nMul\nMul\nadd\nMul\nBackwardLeakyRelu\nMul\nAggSum\nAggSum\nAggSum -->
<g id="edge15" class="edge">
<title>V7&#45;&gt;K2\nTrueDiv\nMul\nAdd\nMul\nTrueDiv\nMul\nTrueDiv\nMul\nMul\nadd\nMul\nBackwardLeakyRelu\nMul\nAggSum\nAggSum\nAggSum</title>
<path fill="none" stroke="black" d="M591.07,-349.93C581.92,-338.86 562.31,-315.14 540.68,-288.98"/>
<polygon fill="black" stroke="black" points="543.3,-286.64 534.23,-281.17 537.9,-291.1 543.3,-286.64"/>
</g>
<!-- V11 -->
<g id="node13" class="node">
<title>V11</title>
<text text-anchor="middle" x="407.5" y="-3.8" font-family="Times,serif" font-size="14.00">V11</text>
</g>
<!-- K2\nTrueDiv\nMul\nAdd\nMul\nTrueDiv\nMul\nTrueDiv\nMul\nMul\nadd\nMul\nBackwardLeakyRelu\nMul\nAggSum\nAggSum\nAggSum&#45;&gt;V11 -->
<g id="edge16" class="edge">
<title>K2\nTrueDiv\nMul\nAdd\nMul\nTrueDiv\nMul\nTrueDiv\nMul\nMul\nadd\nMul\nBackwardLeakyRelu\nMul\nAggSum\nAggSum\nAggSum&#45;&gt;V11</title>
<path fill="none" stroke="black" d="M418.75,-50.82C416.1,-40.83 413.72,-31.91 411.85,-24.87"/>
<polygon fill="black" stroke="black" points="415.23,-23.96 409.28,-15.19 408.47,-25.76 415.23,-23.96"/>
</g>
<!-- V25 -->
<g id="node14" class="node">
<title>V25</title>
<text text-anchor="middle" x="453.5" y="-3.8" font-family="Times,serif" font-size="14.00">V25</text>
</g>
<!-- K2\nTrueDiv\nMul\nAdd\nMul\nTrueDiv\nMul\nTrueDiv\nMul\nMul\nadd\nMul\nBackwardLeakyRelu\nMul\nAggSum\nAggSum\nAggSum&#45;&gt;V25 -->
<g id="edge17" class="edge">
<title>K2\nTrueDiv\nMul\nAdd\nMul\nTrueDiv\nMul\nTrueDiv\nMul\nMul\nadd\nMul\nBackwardLeakyRelu\nMul\nAggSum\nAggSum\nAggSum&#45;&gt;V25</title>
<path fill="none" stroke="black" d="M453.5,-50.82C453.5,-41.07 453.5,-32.34 453.5,-25.38"/>
<polygon fill="black" stroke="black" points="457,-25.19 453.5,-15.19 450,-25.19 457,-25.19"/>
</g>
<!-- V27 -->
<g id="node15" class="node">
<title>V27</title>
<text text-anchor="middle" x="499.5" y="-3.8" font-family="Times,serif" font-size="14.00">V27</text>
</g>
<!-- K2\nTrueDiv\nMul\nAdd\nMul\nTrueDiv\nMul\nTrueDiv\nMul\nMul\nadd\nMul\nBackwardLeakyRelu\nMul\nAggSum\nAggSum\nAggSum&#45;&gt;V27 -->
<g id="edge18" class="edge">
<title>K2\nTrueDiv\nMul\nAdd\nMul\nTrueDiv\nMul\nTrueDiv\nMul\nMul\nadd\nMul\nBackwardLeakyRelu\nMul\nAggSum\nAggSum\nAggSum&#45;&gt;V27</title>
<path fill="none" stroke="black" d="M488.25,-50.82C490.9,-40.83 493.28,-31.91 495.15,-24.87"/>
<polygon fill="black" stroke="black" points="498.53,-25.76 497.72,-15.19 491.77,-23.96 498.53,-25.76"/>
</g>
</g>
</svg>
