<?xml version="1.0" encoding="UTF-8" standalone="no"?>
<!DOCTYPE svg PUBLIC "-//W3C//DTD SVG 1.1//EN"
 "http://www.w3.org/Graphics/SVG/1.1/DTD/svg11.dtd">
<!-- Generated by graphviz version 2.43.0 (0)
 -->
<!-- Title: %3 Pages: 1 -->
<svg width="624pt" height="719pt"
 viewBox="0.00 0.00 623.50 719.00" xmlns="http://www.w3.org/2000/svg" xmlns:xlink="http://www.w3.org/1999/xlink">
<g id="graph0" class="graph" transform="scale(1 1) rotate(0) translate(4 715)">
<title>%3</title>
<polygon fill="white" stroke="transparent" points="-4,4 -4,-715 619.5,-715 619.5,4 -4,4"/>
<!-- fused&#45;and&#45;compiled -->
<g id="node1" class="node">
<title>fused&#45;and&#45;compiled</title>
<polygon fill="green" stroke="green" points="155,-711 0,-711 0,-675 155,-675 155,-711"/>
<text text-anchor="middle" x="77.5" y="-689.3" font-family="Times,serif" font-size="14.00">fused&#45;and&#45;compiled</text>
</g>
<!-- not compiled -->
<g id="node2" class="node">
<title>not compiled</title>
<polygon fill="blue" stroke="blue" points="282,-711 173,-711 173,-675 282,-675 282,-711"/>
<text text-anchor="middle" x="227.5" y="-689.3" font-family="Times,serif" font-size="14.00">not compiled</text>
</g>
<!-- Velinb -->
<g id="node3" class="node">
<title>Velinb</title>
<text text-anchor="middle" x="322.5" y="-689.3" font-family="Times,serif" font-size="14.00">Velinb</text>
</g>
<!-- K4\nAdd\nLeakyReLU\nexp\nAggSum -->
<g id="node5" class="node">
<title>K4\nAdd\nLeakyReLU\nexp\nAggSum</title>
<polygon fill="green" stroke="green" points="447.5,-639 349.5,-639 349.5,-556 447.5,-556 447.5,-639"/>
<text text-anchor="middle" x="398.5" y="-623.8" font-family="Times,serif" font-size="14.00">K4</text>
<text text-anchor="middle" x="398.5" y="-608.8" font-family="Times,serif" font-size="14.00">Add</text>
<text text-anchor="middle" x="398.5" y="-593.8" font-family="Times,serif" font-size="14.00">LeakyReLU</text>
<text text-anchor="middle" x="398.5" y="-578.8" font-family="Times,serif" font-size="14.00">exp</text>
<text text-anchor="middle" x="398.5" y="-563.8" font-family="Times,serif" font-size="14.00">AggSum</text>
</g>
<!-- Velinb&#45;&gt;K4\nAdd\nLeakyReLU\nexp\nAggSum -->
<g id="edge1" class="edge">
<title>Velinb&#45;&gt;K4\nAdd\nLeakyReLU\nexp\nAggSum</title>
<path fill="none" stroke="black" d="M327.97,-685.28C334.69,-677 346.73,-662.19 358.98,-647.13"/>
<polygon fill="black" stroke="black" points="361.78,-649.22 365.37,-639.26 356.35,-644.81 361.78,-649.22"/>
</g>
<!-- K6\nTrueDiv\nMul\nAdd\nMul\nTrueDiv\nMul\nTrueDiv\nMul\nMul\nadd\nMul\nBackwardLeakyRelu\nMul\nAggSum\nAggSum\nAggSum -->
<g id="node12" class="node">
<title>K6\nTrueDiv\nMul\nAdd\nMul\nTrueDiv\nMul\nTrueDiv\nMul\nMul\nadd\nMul\nBackwardLeakyRelu\nMul\nAggSum\nAggSum\nAggSum</title>
<polygon fill="green" stroke="green" points="535,-314 374,-314 374,-51 535,-51 535,-314"/>
<text text-anchor="middle" x="454.5" y="-298.8" font-family="Times,serif" font-size="14.00">K6</text>
<text text-anchor="middle" x="454.5" y="-283.8" font-family="Times,serif" font-size="14.00">TrueDiv</text>
<text text-anchor="middle" x="454.5" y="-268.8" font-family="Times,serif" font-size="14.00">Mul</text>
<text text-anchor="middle" x="454.5" y="-253.8" font-family="Times,serif" font-size="14.00">Add</text>
<text text-anchor="middle" x="454.5" y="-238.8" font-family="Times,serif" font-size="14.00">Mul</text>
<text text-anchor="middle" x="454.5" y="-223.8" font-family="Times,serif" font-size="14.00">TrueDiv</text>
<text text-anchor="middle" x="454.5" y="-208.8" font-family="Times,serif" font-size="14.00">Mul</text>
<text text-anchor="middle" x="454.5" y="-193.8" font-family="Times,serif" font-size="14.00">TrueDiv</text>
<text text-anchor="middle" x="454.5" y="-178.8" font-family="Times,serif" font-size="14.00">Mul</text>
<text text-anchor="middle" x="454.5" y="-163.8" font-family="Times,serif" font-size="14.00">Mul</text>
<text text-anchor="middle" x="454.5" y="-148.8" font-family="Times,serif" font-size="14.00">add</text>
<text text-anchor="middle" x="454.5" y="-133.8" font-family="Times,serif" font-size="14.00">Mul</text>
<text text-anchor="middle" x="454.5" y="-118.8" font-family="Times,serif" font-size="14.00">BackwardLeakyRelu</text>
<text text-anchor="middle" x="454.5" y="-103.8" font-family="Times,serif" font-size="14.00">Mul</text>
<text text-anchor="middle" x="454.5" y="-88.8" font-family="Times,serif" font-size="14.00">AggSum</text>
<text text-anchor="middle" x="454.5" y="-73.8" font-family="Times,serif" font-size="14.00">AggSum</text>
<text text-anchor="middle" x="454.5" y="-58.8" font-family="Times,serif" font-size="14.00">AggSum</text>
</g>
<!-- Velinb&#45;&gt;K6\nTrueDiv\nMul\nAdd\nMul\nTrueDiv\nMul\nTrueDiv\nMul\nMul\nadd\nMul\nBackwardLeakyRelu\nMul\nAggSum\nAggSum\nAggSum -->
<g id="edge2" class="edge">
<title>Velinb&#45;&gt;K6\nTrueDiv\nMul\nAdd\nMul\nTrueDiv\nMul\nTrueDiv\nMul\nMul\nadd\nMul\nBackwardLeakyRelu\nMul\nAggSum\nAggSum\nAggSum</title>
<path fill="none" stroke="black" d="M321.78,-685.2C319.33,-661.53 311.5,-580.56 311.5,-513.5 311.5,-513.5 311.5,-513.5 311.5,-434 311.5,-378.96 337.86,-325 367.95,-281.35"/>
<polygon fill="black" stroke="black" points="370.91,-283.23 373.81,-273.04 365.18,-279.19 370.91,-283.23"/>
</g>
<!-- Vercen -->
<g id="node4" class="node">
<title>Vercen</title>
<text text-anchor="middle" x="478.5" y="-689.3" font-family="Times,serif" font-size="14.00">Vercen</text>
</g>
<!-- Vercen&#45;&gt;K4\nAdd\nLeakyReLU\nexp\nAggSum -->
<g id="edge3" class="edge">
<title>Vercen&#45;&gt;K4\nAdd\nLeakyReLU\nexp\nAggSum</title>
<path fill="none" stroke="black" d="M472.75,-685.28C465.67,-677 453,-662.19 440.11,-647.13"/>
<polygon fill="black" stroke="black" points="442.53,-644.58 433.37,-639.26 437.21,-649.13 442.53,-644.58"/>
</g>
<!-- Vercen&#45;&gt;K6\nTrueDiv\nMul\nAdd\nMul\nTrueDiv\nMul\nTrueDiv\nMul\nMul\nadd\nMul\nBackwardLeakyRelu\nMul\nAggSum\nAggSum\nAggSum -->
<g id="edge4" class="edge">
<title>Vercen&#45;&gt;K6\nTrueDiv\nMul\nAdd\nMul\nTrueDiv\nMul\nTrueDiv\nMul\nMul\nadd\nMul\nBackwardLeakyRelu\nMul\nAggSum\nAggSum\nAggSum</title>
<path fill="none" stroke="black" d="M484.07,-685.36C502.37,-662.84 559.5,-586.67 559.5,-513.5 559.5,-513.5 559.5,-513.5 559.5,-434 559.5,-396.66 549.46,-358.46 535.58,-323.5"/>
<polygon fill="black" stroke="black" points="538.81,-322.14 531.78,-314.21 532.33,-324.79 538.81,-322.14"/>
</g>
<!-- V36 -->
<g id="node6" class="node">
<title>V36</title>
<text text-anchor="middle" x="356.5" y="-508.8" font-family="Times,serif" font-size="14.00">V36</text>
</g>
<!-- K4\nAdd\nLeakyReLU\nexp\nAggSum&#45;&gt;V36 -->
<g id="edge5" class="edge">
<title>K4\nAdd\nLeakyReLU\nexp\nAggSum&#45;&gt;V36</title>
<path fill="none" stroke="black" d="M377.99,-555.97C373.18,-546.47 368.34,-536.89 364.47,-529.25"/>
<polygon fill="black" stroke="black" points="367.53,-527.55 359.89,-520.2 361.28,-530.71 367.53,-527.55"/>
</g>
<!-- V37 -->
<g id="node7" class="node">
<title>V37</title>
<text text-anchor="middle" x="402.5" y="-508.8" font-family="Times,serif" font-size="14.00">V37</text>
</g>
<!-- K4\nAdd\nLeakyReLU\nexp\nAggSum&#45;&gt;V37 -->
<g id="edge6" class="edge">
<title>K4\nAdd\nLeakyReLU\nexp\nAggSum&#45;&gt;V37</title>
<path fill="none" stroke="black" d="M400.45,-555.97C400.89,-546.9 401.33,-537.76 401.69,-530.3"/>
<polygon fill="black" stroke="black" points="405.19,-530.36 402.18,-520.2 398.2,-530.02 405.19,-530.36"/>
</g>
<!-- K5\nTrueDiv\nMul\nAggSum -->
<g id="node9" class="node">
<title>K5\nTrueDiv\nMul\nAggSum</title>
<polygon fill="green" stroke="green" points="493,-469 416,-469 416,-401 493,-401 493,-469"/>
<text text-anchor="middle" x="454.5" y="-453.8" font-family="Times,serif" font-size="14.00">K5</text>
<text text-anchor="middle" x="454.5" y="-438.8" font-family="Times,serif" font-size="14.00">TrueDiv</text>
<text text-anchor="middle" x="454.5" y="-423.8" font-family="Times,serif" font-size="14.00">Mul</text>
<text text-anchor="middle" x="454.5" y="-408.8" font-family="Times,serif" font-size="14.00">AggSum</text>
</g>
<!-- V36&#45;&gt;K5\nTrueDiv\nMul\nAggSum -->
<g id="edge7" class="edge">
<title>V36&#45;&gt;K5\nTrueDiv\nMul\nAggSum</title>
<path fill="none" stroke="black" d="M365.2,-504.8C374.85,-497.36 391.2,-484.77 407.29,-472.37"/>
<polygon fill="black" stroke="black" points="409.86,-474.81 415.65,-465.93 405.59,-469.26 409.86,-474.81"/>
</g>
<!-- V36&#45;&gt;K6\nTrueDiv\nMul\nAdd\nMul\nTrueDiv\nMul\nTrueDiv\nMul\nMul\nadd\nMul\nBackwardLeakyRelu\nMul\nAggSum\nAggSum\nAggSum -->
<g id="edge8" class="edge">
<title>V36&#45;&gt;K6\nTrueDiv\nMul\nAdd\nMul\nTrueDiv\nMul\nTrueDiv\nMul\nMul\nadd\nMul\nBackwardLeakyRelu\nMul\nAggSum\nAggSum\nAggSum</title>
<path fill="none" stroke="black" d="M358.46,-504.95C365.46,-481.53 390.02,-399.32 412.55,-323.92"/>
<polygon fill="black" stroke="black" points="415.92,-324.87 415.42,-314.28 409.21,-322.86 415.92,-324.87"/>
</g>
<!-- V37&#45;&gt;K5\nTrueDiv\nMul\nAggSum -->
<g id="edge9" class="edge">
<title>V37&#45;&gt;K5\nTrueDiv\nMul\nAggSum</title>
<path fill="none" stroke="black" d="M407.11,-504.8C411.51,-498.42 418.52,-488.25 425.81,-477.66"/>
<polygon fill="black" stroke="black" points="428.88,-479.36 431.67,-469.14 423.12,-475.39 428.88,-479.36"/>
</g>
<!-- V37&#45;&gt;K6\nTrueDiv\nMul\nAdd\nMul\nTrueDiv\nMul\nTrueDiv\nMul\nMul\nadd\nMul\nBackwardLeakyRelu\nMul\nAggSum\nAggSum\nAggSum -->
<g id="edge10" class="edge">
<title>V37&#45;&gt;K6\nTrueDiv\nMul\nAdd\nMul\nTrueDiv\nMul\nTrueDiv\nMul\nMul\nadd\nMul\nBackwardLeakyRelu\nMul\nAggSum\nAggSum\nAggSum</title>
<path fill="none" stroke="black" d="M402.33,-504.99C401.96,-487.87 401.5,-440.23 406.5,-401 409.68,-376.03 414.35,-349.69 419.54,-324.29"/>
<polygon fill="black" stroke="black" points="423.02,-324.74 421.63,-314.23 416.17,-323.31 423.02,-324.74"/>
</g>
<!-- Vfeat_srcinb -->
<g id="node8" class="node">
<title>Vfeat_srcinb</title>
<text text-anchor="middle" x="484.5" y="-508.8" font-family="Times,serif" font-size="14.00">Vfeat_srcinb</text>
</g>
<!-- Vfeat_srcinb&#45;&gt;K5\nTrueDiv\nMul\nAggSum -->
<g id="edge11" class="edge">
<title>Vfeat_srcinb&#45;&gt;K5\nTrueDiv\nMul\nAggSum</title>
<path fill="none" stroke="black" d="M481.84,-504.8C479.38,-498.61 475.5,-488.85 471.43,-478.6"/>
<polygon fill="black" stroke="black" points="474.61,-477.14 467.67,-469.14 468.11,-479.73 474.61,-477.14"/>
</g>
<!-- Vfeat_srcinb&#45;&gt;K6\nTrueDiv\nMul\nAdd\nMul\nTrueDiv\nMul\nTrueDiv\nMul\nMul\nadd\nMul\nBackwardLeakyRelu\nMul\nAggSum\nAggSum\nAggSum -->
<g id="edge12" class="edge">
<title>Vfeat_srcinb&#45;&gt;K6\nTrueDiv\nMul\nAdd\nMul\nTrueDiv\nMul\nTrueDiv\nMul\nMul\nadd\nMul\nBackwardLeakyRelu\nMul\nAggSum\nAggSum\nAggSum</title>
<path fill="none" stroke="black" d="M488.1,-504.82C492.29,-496.65 498.95,-482.27 501.5,-469 507.22,-439.32 504.71,-431.05 501.5,-401 498.83,-375.99 494.48,-349.63 489.47,-324.23"/>
<polygon fill="black" stroke="black" points="492.85,-323.28 487.44,-314.17 485.99,-324.67 492.85,-323.28"/>
</g>
<!-- V40 -->
<g id="node10" class="node">
<title>V40</title>
<text text-anchor="middle" x="454.5" y="-353.8" font-family="Times,serif" font-size="14.00">V40</text>
</g>
<!-- K5\nTrueDiv\nMul\nAggSum&#45;&gt;V40 -->
<g id="edge13" class="edge">
<title>K5\nTrueDiv\nMul\nAggSum&#45;&gt;V40</title>
<path fill="none" stroke="black" d="M454.5,-400.66C454.5,-391.85 454.5,-382.71 454.5,-375.2"/>
<polygon fill="black" stroke="black" points="458,-375.03 454.5,-365.03 451,-375.03 458,-375.03"/>
</g>
<!-- V40&#45;&gt;K6\nTrueDiv\nMul\nAdd\nMul\nTrueDiv\nMul\nTrueDiv\nMul\nMul\nadd\nMul\nBackwardLeakyRelu\nMul\nAggSum\nAggSum\nAggSum -->
<g id="edge14" class="edge">
<title>V40&#45;&gt;K6\nTrueDiv\nMul\nAdd\nMul\nTrueDiv\nMul\nTrueDiv\nMul\nMul\nadd\nMul\nBackwardLeakyRelu\nMul\nAggSum\nAggSum\nAggSum</title>
<path fill="none" stroke="black" d="M454.5,-349.93C454.5,-344.25 454.5,-335.23 454.5,-324.26"/>
<polygon fill="black" stroke="black" points="458,-324.16 454.5,-314.16 451,-324.16 458,-324.16"/>
</g>
<!-- V41 -->
<g id="node11" class="node">
<title>V41</title>
<text text-anchor="middle" x="601.5" y="-353.8" font-family="Times,serif" font-size="14.00">V41</text>
</g>
<!-- V41&#45;&gt;K6\nTrueDiv\nMul\nAdd\nMul\nTrueDiv\nMul\nTrueDiv\nMul\nMul\nadd\nMul\nBackwardLeakyRelu\nMul\nAggSum\nAggSum\nAggSum -->
<g id="edge15" class="edge">
<title>V41&#45;&gt;K6\nTrueDiv\nMul\nAdd\nMul\nTrueDiv\nMul\nTrueDiv\nMul\nMul\nadd\nMul\nBackwardLeakyRelu\nMul\nAggSum\nAggSum\nAggSum</title>
<path fill="none" stroke="black" d="M595.92,-349.93C586.19,-338.48 564.93,-313.47 541.79,-286.23"/>
<polygon fill="black" stroke="black" points="544.36,-283.85 535.22,-278.5 539.03,-288.38 544.36,-283.85"/>
</g>
<!-- V46 -->
<g id="node13" class="node">
<title>V46</title>
<text text-anchor="middle" x="408.5" y="-3.8" font-family="Times,serif" font-size="14.00">V46</text>
</g>
<!-- K6\nTrueDiv\nMul\nAdd\nMul\nTrueDiv\nMul\nTrueDiv\nMul\nMul\nadd\nMul\nBackwardLeakyRelu\nMul\nAggSum\nAggSum\nAggSum&#45;&gt;V46 -->
<g id="edge16" class="edge">
<title>K6\nTrueDiv\nMul\nAdd\nMul\nTrueDiv\nMul\nTrueDiv\nMul\nMul\nadd\nMul\nBackwardLeakyRelu\nMul\nAggSum\nAggSum\nAggSum&#45;&gt;V46</title>
<path fill="none" stroke="black" d="M419.75,-50.82C417.1,-40.83 414.72,-31.91 412.85,-24.87"/>
<polygon fill="black" stroke="black" points="416.23,-23.96 410.28,-15.19 409.47,-25.76 416.23,-23.96"/>
</g>
<!-- V60 -->
<g id="node14" class="node">
<title>V60</title>
<text text-anchor="middle" x="454.5" y="-3.8" font-family="Times,serif" font-size="14.00">V60</text>
</g>
<!-- K6\nTrueDiv\nMul\nAdd\nMul\nTrueDiv\nMul\nTrueDiv\nMul\nMul\nadd\nMul\nBackwardLeakyRelu\nMul\nAggSum\nAggSum\nAggSum&#45;&gt;V60 -->
<g id="edge17" class="edge">
<title>K6\nTrueDiv\nMul\nAdd\nMul\nTrueDiv\nMul\nTrueDiv\nMul\nMul\nadd\nMul\nBackwardLeakyRelu\nMul\nAggSum\nAggSum\nAggSum&#45;&gt;V60</title>
<path fill="none" stroke="black" d="M454.5,-50.82C454.5,-41.07 454.5,-32.34 454.5,-25.38"/>
<polygon fill="black" stroke="black" points="458,-25.19 454.5,-15.19 451,-25.19 458,-25.19"/>
</g>
<!-- V62 -->
<g id="node15" class="node">
<title>V62</title>
<text text-anchor="middle" x="500.5" y="-3.8" font-family="Times,serif" font-size="14.00">V62</text>
</g>
<!-- K6\nTrueDiv\nMul\nAdd\nMul\nTrueDiv\nMul\nTrueDiv\nMul\nMul\nadd\nMul\nBackwardLeakyRelu\nMul\nAggSum\nAggSum\nAggSum&#45;&gt;V62 -->
<g id="edge18" class="edge">
<title>K6\nTrueDiv\nMul\nAdd\nMul\nTrueDiv\nMul\nTrueDiv\nMul\nMul\nadd\nMul\nBackwardLeakyRelu\nMul\nAggSum\nAggSum\nAggSum&#45;&gt;V62</title>
<path fill="none" stroke="black" d="M489.25,-50.82C491.9,-40.83 494.28,-31.91 496.15,-24.87"/>
<polygon fill="black" stroke="black" points="499.53,-25.76 498.72,-15.19 492.77,-23.96 499.53,-25.76"/>
</g>
</g>
</svg>
